HIERARCHY
ROOT Hips
{
 OFFSET 0.000000 0.000000 0.000000
 CHANNELS 6 Xposition Yposition Zposition Yrotation Xrotation Zrotation
 JOINT Chest
 {
  OFFSET 0.000000 9.303000 0.001900
  CHANNELS 3 Yrotation Xrotation Zrotation
  JOINT Chest2
  {
   OFFSET 0.000000 9.301100 -0.003900
   CHANNELS 3 Yrotation Xrotation Zrotation
   JOINT Chest3
   {
    OFFSET 0.000000 9.262800 0.000000
    CHANNELS 3 Yrotation Xrotation Zrotation
    JOINT Chest4
    {
     OFFSET 0.000000 9.253300 0.000000
     CHANNELS 3 Yrotation Xrotation Zrotation
     JOINT Neck
     {
      OFFSET 0.000000 14.010300 0.000000
      CHANNELS 3 Yrotation Xrotation Zrotation
      JOINT Head
      {
       OFFSET 0.000000 8.657600 -0.008300
       CHANNELS 3 Yrotation Xrotation Zrotation
       End Site
       {
        OFFSET 0.000000 16.540200 -0.004400
       }
      }
     }
     JOINT RightCollar
     {
      OFFSET -2.834100 9.267700 0.000000
      CHANNELS 3 Yrotation Xrotation Zrotation
      JOINT RightShoulder
      {
       OFFSET -13.135200 0.000000 0.000000
       CHANNELS 3 Yrotation Xrotation Zrotation
       JOINT RightElbow
       {
        OFFSET 0.000000 -28.893500 0.000000
        CHANNELS 3 Yrotation Xrotation Zrotation
        JOINT RightWrist
        {
         OFFSET 0.000000 -23.344000 0.000000
         CHANNELS 3 Yrotation Xrotation Zrotation
         End Site
         {
          OFFSET 0.000000 -17.223000 0.000000
         }
        }
       }
      }
     }
     JOINT LeftCollar
     {
      OFFSET 2.834100 9.267700 0.000000
      CHANNELS 3 Yrotation Xrotation Zrotation
      JOINT LeftShoulder
      {
       OFFSET 13.135200 0.000000 0.000000
       CHANNELS 3 Yrotation Xrotation Zrotation
       JOINT LeftElbow
       {
        OFFSET 0.000000 -28.893500 0.000000
        CHANNELS 3 Yrotation Xrotation Zrotation
        JOINT LeftWrist
        {
         OFFSET 0.000000 -23.344000 0.000000
         CHANNELS 3 Yrotation Xrotation Zrotation
         End Site
         {
          OFFSET 0.000000 -17.223000 0.000000
         }
        }
       }
      }
     }
    }
   }
  }
 }
 JOINT RightHip
 {
  OFFSET -7.547200 -0.009500 -0.001000
  CHANNELS 3 Yrotation Xrotation Zrotation
  JOINT RightKnee
  {
   OFFSET 0.000000 -39.762800 0.000900
   CHANNELS 3 Yrotation Xrotation Zrotation
   JOINT RightAnkle
   {
    OFFSET 0.000000 -38.588200 0.001600
    CHANNELS 3 Yrotation Xrotation Zrotation
    JOINT RightToe
    {
     OFFSET 0.000000 -4.693300 10.419700
     CHANNELS 3 Yrotation Xrotation Zrotation
     End Site
     {
      OFFSET 0.000000 -1.379900 5.669300
     }
    }
   }
  }
 }
 JOINT LeftHip
 {
  OFFSET 7.547200 -0.009500 -0.001000
  CHANNELS 3 Yrotation Xrotation Zrotation
  JOINT LeftKnee
  {
   OFFSET 0.000000 -39.762800 0.000900
   CHANNELS 3 Yrotation Xrotation Zrotation
   JOINT LeftAnkle
   {
    OFFSET 0.000000 -38.588200 0.001600
    CHANNELS 3 Yrotation Xrotation Zrotation
    JOINT LeftToe
    {
     OFFSET 0.000000 -4.693300 10.419700
     CHANNELS 3 Yrotation Xrotation Zrotation
     End Site
     {
      OFFSET 0.000000 -1.379900 5.669300
     }
    }
   }
  }
 }
}
MOTION
Frames: 15
Frame Time: 0.008333
6.099719 45.791106 4.720006 163.518270 -12.236476 -0.090039 2.495763 7.830008 1.619266 0.118344 0.400313 0.092787 0.182498 0.679681 0.156905 2.342187 7.421731 1.874828 -0.835894 20.749834 -1.609661 -0.524063 -3.677533 -1.525587 2.208038 4.568084 -6.555524 7.941414 -7.361494 -6.300578 -126.893188 -80.430769 158.062438 -8.165427 -4.001218 -9.124569 -8.759233 2.362459 -3.961743 2.887416 -7.552458 12.456452 56.457568 -66.616021 -99.670025 4.334466 0.173104 -2.420751 -13.431585 -75.978767 19.840467 -148.541701 83.687297 -149.223036 -11.092215 -26.035364 9.825473 0.152502 -0.343043 0.050462 -2.641298 -74.849809 24.932012 86.118672 76.954287 83.750743 -10.836474 -7.026448 1.417031 0.077139 0.479462 0.048911
6.092485 45.792223 4.713766 163.525014 -12.228863 -0.081674 2.522287 7.845188 1.621558 0.129861 0.410519 0.095310 0.160952 0.663721 0.151636 2.353596 7.428652 1.876316 -0.820311 20.784641 -1.591379 -0.560920 -3.699777 -1.517117 2.310679 4.595585 -6.515321 7.899869 -7.348747 -6.360563 -126.649662 -80.375064 157.817664 -8.204778 -4.079793 -9.248616 -8.735627 2.421171 -3.965408 2.879650 -7.510625 12.305050 56.490087 -66.580431 -99.719319 4.403083 0.047164 -2.190675 -13.336935 -75.994950 19.730220 -148.646058 83.684996 -149.311511 -11.102673 -26.027580 9.835230 0.148296 -0.347117 0.048700 -2.534211 -74.863816 24.826427 86.150848 76.950853 83.779775 -10.833719 -7.032667 1.441291 0.060487 0.475503 0.046454
6.086503 45.793243 4.705903 163.558618 -12.222189 -0.087796 2.500972 7.846174 1.624632 0.162440 0.437663 0.102087 0.166506 0.664935 0.153855 2.338277 7.417108 1.870457 -0.830156 20.788329 -1.582268 -0.554447 -3.649719 -1.485611 2.374829 4.612231 -6.491556 7.883695 -7.330864 -6.399923 -126.364896 -80.319924 157.535854 -8.246899 -4.156839 -9.352075 -8.712826 2.477584 -3.966502 2.894001 -7.472416 12.153984 56.474640 -66.540154 -99.744609 4.467967 -0.074012 -1.990467 -13.331644 -76.004039 19.681563 -148.678376 83.667541 -149.332482 -11.098593 -26.031009 9.838896 0.160962 -0.348841 0.054584 -2.475904 -74.878800 24.746074 86.145542 76.955408 83.787151 -10.849952 -7.035435 1.443047 0.074605 0.474665 0.054353
6.079651 45.794003 4.697726 163.571245 -12.205100 -0.086335 2.529339 7.861976 1.634124 0.166111 0.440671 0.101696 0.166893 0.666446 0.155331 2.415372 7.462455 1.887198 -0.927496 20.729125 -1.581632 -0.549413 -3.609400 -1.450192 2.333775 4.558596 -6.491677 7.842059 -7.331073 -6.418211 -125.955395 -80.279137 157.163777 -8.279633 -4.228502 -9.429122 -8.771852 2.469966 -3.968052 2.925667 -7.438938 12.011109 56.456697 -66.514100 -99.780673 4.522307 -0.182470 -1.804262 -13.300819 -76.023714 19.629422 -148.740811 83.660874 -149.386058 -11.106325 -26.030980 9.844991 0.164519 -0.347126 0.059157 -2.374965 -74.904722 24.649523 86.183830 76.959311 83.828962 -10.862155 -7.049545 1.464988 0.079704 0.476379 0.053517
6.069913 45.794225 4.690934 163.584759 -12.164319 -0.071082 2.558751 7.855443 1.628256 0.164920 0.445183 0.101943 0.217171 0.707593 0.164763 2.409560 7.441652 1.885658 -0.928317 20.752660 -1.542866 -0.613306 -3.649964 -1.427502 2.317975 4.529468 -6.485526 7.803345 -7.331825 -6.435023 -125.576549 -80.239391 156.813623 -8.295695 -4.290791 -9.478716 -8.812670 2.468484 -3.968386 2.985920 -7.389632 11.878442 56.469341 -66.520612 -99.847090 4.563963 -0.278895 -1.624424 -13.155036 -76.075364 19.448562 -148.955225 83.667197 -149.563310 -11.118255 -26.035910 9.845212 0.152026 -0.339948 0.057614 -2.273242 -74.950024 24.542492 86.247898 76.954465 83.883463 -10.876573 -7.064170 1.487846 0.081022 0.477616 0.046000
6.061632 45.795708 4.678804 163.590359 -12.149225 -0.052290 2.592577 7.879056 1.620438 0.145062 0.426436 0.098892 0.218532 0.708631 0.165044 2.456632 7.471406 1.893346 -0.936822 20.755808 -1.512644 -0.653701 -3.671843 -1.398959 2.283026 4.492612 -6.483001 7.857209 -7.255369 -6.453305 -125.599976 -80.165368 156.798536 -8.260779 -4.322946 -9.517414 -8.823018 2.495895 -3.962985 3.039854 -7.359175 11.752694 56.523894 -66.570871 -99.941941 4.596174 -0.367762 -1.451739 -13.064262 -76.095303 19.329606 -148.993490 83.654673 -149.593578 -11.089868 -26.039631 9.847737 0.162241 -0.339031 0.058621 -2.149651 -74.969769 24.425176 86.368106 76.935025 83.975308 -10.868997 -7.081073 1.539016 0.037834 0.471205 0.031089
6.054420 45.797309 4.667098 163.607077 -12.125544 -0.040074 2.658198 7.931488 1.632631 0.084187 0.369085 0.085890 0.219773 0.709724 0.165284 2.469136 7.476464 1.893571 -0.925656 20.768877 -1.487866 -0.683100 -3.686537 -1.366178 2.321373 4.510198 -6.458403 7.808491 -7.251440 -6.477731 -125.455310 -80.125942 156.670781 -8.269026 -4.348257 -9.497367 -8.787340 2.567841 -3.953632 3.081542 -7.345652 11.636272 56.627175 -66.663954 -100.063999 4.625693 -0.447747 -1.289788 -13.031817 -76.120843 19.265842 -149.024840 83.640109 -149.618933 -11.108980 -26.040859 9.855522 0.119988 -0.329937 0.054246 -2.006037 -75.002463 24.284377 86.435101 76.931363 84.036820 -10.876827 -7.094798 1.567015 0.022922 0.467085 0.032317
6.051475 45.799681 4.653619 163.630667 -12.113713 -0.047431 2.679514 7.953901 1.648465 0.084266 0.374351 0.086847 0.222733 0.712554 0.165370 2.508981 7.491218 1.892752 -0.965562 20.741551 -1.461323 -0.712861 -3.701889 -1.332889 2.306643 4.498496 -6.430923 7.757586 -7.257408 -6.500476 -125.489948 -80.105322 156.703882 -8.290755 -4.337322 -9.420364 -8.814959 2.585193 -3.934039 3.138508 -7.309476 11.535341 56.779356 -66.790198 -100.219854 4.654778 -0.516931 -1.138469 -13.073198 -76.129814 19.277724 -148.872869 83.605848 -149.456762 -11.132715 -26.039343 9.859195 0.170432 -0.332185 0.069782 -1.873480 -75.029373 24.176069 86.463532 76.958521 84.077414 -10.913849 -7.104850 1.582852 0.045586 0.463474 0.046402
6.045808 45.801331 4.643065 163.665074 -12.074491 -0.041406 2.689224 7.946817 1.645650 0.118865 0.402866 0.092769 0.238381 0.723345 0.166945 2.498028 7.469847 1.884228 -1.005189 20.716318 -1.434268 -0.745050 -3.719558 -1.309570 2.277345 4.486534 -6.405185 7.712953 -7.274682 -6.521310 -125.442548 -80.092727 156.664002 -8.294880 -4.300059 -9.329964 -8.839963 2.609247 -3.913427 3.192873 -7.270964 11.449836 56.915483 -66.918367 -100.408256 4.662141 -0.597107 -0.941059 -13.109360 -76.167487 19.259824 -148.978589 83.594742 -149.563822 -11.122445 -26.033677 9.858387 0.166290 -0.342258 0.068979 -1.781691 -75.074653 24.076757 86.521674 76.970821 84.124158 -10.928221 -7.117735 1.601606 0.045508 0.462122 0.054002
6.043626 45.803525 4.630297 163.670609 -12.051540 -0.041354 2.729693 7.955535 1.653029 0.131439 0.411782 0.094535 0.229366 0.717058 0.165279 2.518301 7.475552 1.883280 -1.030109 20.699715 -1.407557 -0.777613 -3.738879 -1.275330 2.237249 4.463546 -6.388765 7.696568 -7.277188 -6.530442 -125.344013 -80.081631 156.581579 -8.289259 -4.239659 -9.225439 -8.849480 2.643352 -3.894259 3.244073 -7.234343 11.378339 57.134511 -67.082603 -100.600173 4.705597 -0.640018 -0.806647 -13.154043 -76.180510 19.286410 -149.049659 83.590320 -149.636712 -11.137330 -26.037789 9.857037 0.158634 -0.337996 0.070257 -1.693942 -75.103827 24.019552 86.586666 76.992383 84.180798 -10.944544 -7.131977 1.628854 0.052823 0.458860 0.052974
6.042759 45.805242 4.618824 163.682130 -12.021246 -0.048126 2.765763 7.958002 1.664910 0.108962 0.394984 0.092995 0.255084 0.737122 0.166730 2.536028 7.483648 1.881478 -1.072384 20.665679 -1.389633 -0.790657 -3.746404 -1.228520 2.199728 4.435673 -6.368908 7.688268 -7.265211 -6.535747 -125.317132 -80.069304 156.577060 -8.281485 -4.159134 -9.116651 -8.859482 2.672124 -3.875131 3.296275 -7.199958 11.321054 57.341108 -67.247044 -100.779706 4.760382 -0.673825 -0.668188 -13.238104 -76.201820 19.345008 -149.147039 83.586961 -149.735290 -11.137743 -26.037625 9.849987 0.147596 -0.340012 0.069952 -1.659929 -75.137387 24.003511 86.612764 77.013530 84.205793 -10.957295 -7.138047 1.622370 0.067253 0.455566 0.071276
6.042175 45.807177 4.604124 163.723098 -12.010314 -0.053301 2.773304 7.980869 1.670908 0.084649 0.377966 0.090380 0.282243 0.757854 0.169203 2.550341 7.493840 1.879004 -1.112499 20.629035 -1.372484 -0.806458 -3.758523 -1.211204 2.184937 4.427785 -6.340007 7.656741 -7.270033 -6.552240 -125.441627 -80.059001 156.697841 -8.298243 -4.051539 -8.970361 -8.870285 2.694149 -3.855530 3.350407 -7.164475 11.276248 57.495431 -67.375034 -100.928437 4.802813 -0.704382 -0.520057 -13.293002 -76.206801 19.341808 -149.265669 83.563390 -149.849067 -11.119087 -26.054839 9.841253 0.146034 -0.341249 0.069458 -1.622407 -75.148391 23.955751 86.624442 77.036640 84.214301 -10.979412 -7.150666 1.622861 0.081326 0.459273 0.083324
6.038171 45.807731 4.592443 163.753131 -11.975408 -0.038182 2.776675 7.972583 1.654992 0.099776 0.387612 0.092762 0.280845 0.759071 0.167918 2.548713 7.494031 1.876058 -1.120243 20.618778 -1.348162 -0.838518 -3.785528 -1.197361 2.188358 4.435533 -6.313744 7.634828 -7.265995 -6.573955 -125.397700 -80.056696 156.685266 -8.276937 -3.970200 -8.856169 -8.867036 2.721772 -3.838445 3.402052 -7.123955 11.243701 57.606553 -67.466864 -101.034463 4.842164 -0.726830 -0.396112 -13.276278 -76.241831 19.270975 -149.478563 83.558588 -150.056464 -11.098685 -26.068255 9.831901 0.141575 -0.333884 0.065706 -1.512717 -75.180527 23.847561 86.650061 77.054552 84.216608 -10.996196 -7.167663 1.650008 0.090419 0.466253 0.084232
6.035669 45.807543 4.581824 163.771089 -11.937567 -0.029162 2.768703 7.944005 1.642501 0.134751 0.415719 0.094486 0.280066 0.755058 0.169017 2.560515 7.501748 1.875001 -1.140628 20.604438 -1.325989 -0.870167 -3.813415 -1.165517 2.209167 4.483107 -6.284295 7.558083 -7.337906 -6.606699 -125.267640 -80.069050 156.588105 -8.269981 -3.868708 -8.720200 -8.898445 2.711241 -3.824222 3.473669 -7.051947 11.228571 57.664069 -67.518738 -101.095985 4.878239 -0.742638 -0.299835 -13.277607 -76.283138 19.247570 -149.587978 83.549446 -150.164612 -11.098230 -26.062514 9.830447 0.155024 -0.334815 0.067856 -1.435504 -75.214041 23.785649 86.682879 77.077705 84.223495 -11.011249 -7.191837 1.682839 0.095801 0.478720 0.078590
6.032718 45.806952 4.570550 163.825329 -11.903831 -0.022537 2.758682 7.939168 1.633468 0.135424 0.416824 0.094508 0.277827 0.754373 0.168189 2.584594 7.515890 1.875074 -1.151791 20.603966 -1.287305 -0.930888 -3.851090 -1.117099 2.196555 4.502864 -6.268320 7.529511 -7.374101 -6.625664 -125.305570 -80.069878 156.617043 -8.268329 -3.748238 -8.574404 -8.939597 2.694487 -3.808649 3.540844 -6.978791 11.224086 57.772006 -67.558794 -101.253770 4.943035 -0.715859 -0.187914 -13.293829 -76.322507 19.203846 -149.728350 83.529709 -150.308596 -11.078366 -26.058398 9.823895 0.147380 -0.346428 0.071752 -1.383287 -75.242990 23.713865 86.715266 77.098835 84.223643 -11.030353 -7.215888 1.709758 0.104998 0.494536 0.075265
